PathFileType	4	(X/Y/Z)	 s09c0201.trc
DataRate	CameraRate	NumFrames	NumMarkers	Units	OrigDataRate	OrigDataStartFrame	OrigNumFrames
200	200	4	50	mm	200	1251	2000
Frame#	Time	racr			lacr			c7			jug			rlel			rdr			llel			ldr			s2			lic			ric			lasi			rasi			rpsi			lpsi			rgt			lgt			rth1			rth2			rth3			rth4			rlfc			rmfc			rsh1			rsh2			rsh3			rsh4			rlmal			rmmal			rcal			rtoe			rmt5			lth1			lth2			lth4			lth3			llfc			lmfc			llmal			lmmal			lcal			lmt5			lsh1			lsh2			lsh3			lsh4			ltoe			SBIKE			LBIKE			RBIKE			
		X1	Y1	Z1	X2	Y2	Z2	X3	Y3	Z3	X4	Y4	Z4	X5	Y5	Z5	X6	Y6	Z6	X7	Y7	Z7	X8	Y8	Z8	X9	Y9	Z9	X10	Y10	Z10	X11	Y11	Z11	X12	Y12	Z12	X13	Y13	Z13	X14	Y14	Z14	X15	Y15	Z15	X16	Y16	Z16	X17	Y17	Z17	X18	Y18	Z18	X19	Y19	Z19	X20	Y20	Z20	X21	Y21	Z21	X22	Y22	Z22	X23	Y23	Z23	X24	Y24	Z24	X25	Y25	Z25	X26	Y26	Z26	X27	Y27	Z27	X28	Y28	Z28	X29	Y29	Z29	X30	Y30	Z30	X31	Y31	Z31	X32	Y32	Z32	X33	Y33	Z33	X34	Y34	Z34	X35	Y35	Z35	X36	Y36	Z36	X37	Y37	Z37	X38	Y38	Z38	X39	Y39	Z39	X40	Y40	Z40	X41	Y41	Z41	X42	Y42	Z42	X43	Y43	Z43	X44	Y44	Z44	X45	Y45	Z45	X46	Y46	Z46	X47	Y47	Z47	X48	Y48	Z48	X49	Y49	Z49	X50	Y50	Z50	
1251	6.2550	511.431212	1207.762574	-69.681718	507.348940	1216.980619	-420.810481	497.505359	1295.986556	-236.673585	465.639227	1166.209852	-245.433270	489.342643	1015.526343	89.053457	676.715634	902.099397	-4.581013	454.979116	1005.263478	-592.465170	656.074783	904.515627	-491.502357	6.421598	1123.712613	-221.128431	123.248222	1144.814005	-381.504910	155.401230	1118.969644	-79.751344	169.693834	1087.445762	-362.548070	198.410033	1071.928213	-110.661260	37.965898	1154.400740	-159.120039	29.152916	1167.589424	-265.722215	151.316674	977.954543	-50.013372	105.109309	1005.264430	-419.993803	260.178053	892.671402	-74.318031	336.260686	853.390712	-94.114005	378.418229	776.452196	-107.937801	354.095802	874.207426	-119.910264	415.116310	685.709541	-144.145541	379.312405	670.288395	-236.231859	338.109382	623.358109	-102.530129	291.417086	547.796382	-110.584773	215.005601	505.360916	-99.743915	305.342409	532.744035	-145.068488	140.721537	441.250011	-88.636159	140.481296	444.948489	-164.558391	63.408464	475.791566	-119.776251	209.295671	255.713257	-129.166343	151.005076	312.938007	-62.212186	221.657583	917.922274	-427.040665	301.840425	888.912804	-421.620609	323.272503	917.759502	-408.941542	359.543584	820.223158	-420.850917	423.847354	741.201282	-404.719207	444.611051	729.414026	-307.872731	342.968536	379.364497	-415.978077	356.463158	392.457847	-341.160204	276.011195	329.886513	-378.090975	450.412896	313.531587	-436.093386	397.692977	643.110896	-427.559007	401.759715	556.509171	-419.129589	361.161120	477.802790	-418.264600	427.686427	553.588716	-389.143467	535.506334	348.524168	-364.940942	-65.032557	853.178530	-238.836762	20.701044	84.755635	-441.970649	21.128021	84.019770	-43.821744	
1252	6.2600	510.666102	1207.695172	-68.603211	508.802262	1217.621088	-419.682174	497.481088	1296.750207	-235.073547	465.942810	1166.207195	-244.685047	488.881391	1014.707061	89.067611	676.730870	901.867079	-4.175020	455.941676	1006.653618	-592.334999	656.037896	904.429683	-490.605241	6.603465	1123.519906	-222.575813	123.219015	1142.778468	-383.265465	154.668959	1119.381174	-81.626298	170.291615	1086.609802	-364.065102	198.148365	1072.272277	-112.213201	37.505334	1153.957880	-161.528456	30.645671	1165.815853	-268.598098	152.290112	978.498298	-51.277354	104.405924	1001.333161	-421.515953	261.827514	895.084764	-76.426766	338.698548	857.283055	-96.230880	381.865968	781.300645	-109.607218	356.147073	878.463680	-121.104527	420.203045	691.201036	-145.643633	384.914798	676.071608	-237.674600	342.346242	630.119793	-103.870495	294.214993	555.365267	-111.695022	217.112930	514.409764	-100.556136	307.785844	540.049868	-146.160105	141.682097	452.012805	-89.138771	141.097881	455.793870	-165.095436	64.469206	486.967585	-119.674451	209.819903	266.581972	-129.137879	151.763087	323.899711	-62.251187	219.632779	913.024000	-428.629824	299.169625	882.239389	-422.803329	321.239667	910.650385	-410.285920	355.309082	812.271703	-421.464506	418.497472	732.955003	-404.966695	438.877033	721.025250	-308.351090	342.218230	369.330078	-415.971319	354.353889	380.555558	-339.584869	275.651328	320.083992	-378.172498	449.963206	302.486661	-436.028612	393.618283	634.211681	-427.791872	398.811693	547.832821	-419.835496	359.134322	468.477245	-418.625769	424.708368	544.784531	-389.039046	535.527665	337.072962	-365.043638	-65.040430	853.214100	-238.977396	20.704988	84.737304	-441.986652	21.140118	84.025780	-43.825284	
1253	6.2650	509.802031	1207.658025	-67.549148	510.338433	1218.109775	-418.370918	497.735947	1296.572222	-233.983029	466.233260	1166.264891	-243.725330	488.388378	1013.924469	89.196449	676.842343	901.748299	-3.873668	456.941983	1007.885949	-592.122677	656.037076	904.309348	-489.812403	6.807666	1122.720558	-225.155405	123.415316	1140.909106	-385.094941	154.176328	1119.949220	-83.429817	170.926594	1085.792128	-365.479200	197.906056	1072.781060	-113.561790	37.113545	1153.559149	-164.045006	30.811618	1164.807761	-271.056095	152.985773	979.261336	-52.677817	103.858872	997.553649	-423.253870	263.267350	897.775407	-77.798763	340.920380	861.417520	-97.378668	385.807691	786.156404	-110.918483	358.140969	883.031796	-122.138914	425.253094	696.913403	-147.061967	389.901008	682.477673	-239.038302	346.584023	637.057165	-105.499081	297.287035	563.312974	-112.746142	219.512177	523.678276	-101.312169	310.563000	547.663979	-147.138602	143.074866	462.881806	-89.531474	142.509217	466.753907	-165.549056	66.774570	498.296379	-120.704655	211.299996	277.663090	-129.230259	153.195063	335.075545	-62.386994	217.374318	908.196603	-430.316837	296.093498	875.706326	-423.791103	319.014937	903.432841	-411.563700	350.497702	804.168843	-421.849684	412.883060	723.839052	-404.788650	431.350060	711.609196	-309.203287	340.847294	359.418030	-415.876448	353.252476	370.479071	-339.743412	274.696488	310.583488	-378.113724	448.807639	291.550715	-435.944551	389.151731	625.203395	-427.842999	395.407428	538.831968	-419.965053	356.625891	458.984432	-418.789923	421.210164	536.029057	-388.897194	534.659119	325.013901	-364.705998	-65.051791	853.242423	-239.127287	20.701760	84.742190	-442.006271	21.135021	84.035097	-43.848108	
1254	6.2700	508.670068	1207.674039	-66.901786	511.978103	1218.552716	-416.992011	497.680994	1296.677700	-232.222284	466.505904	1166.379862	-242.614554	487.906930	1013.232318	89.336589	677.024590	901.705633	-3.583599	457.888410	1009.111445	-591.811924	656.167410	904.197785	-489.145950	7.106064	1121.819350	-227.818022	123.837944	1139.166369	-386.889127	153.542299	1120.512838	-85.240467	171.687419	1084.871074	-366.902867	197.745806	1073.242463	-114.681564	36.746532	1153.199319	-166.736993	30.934003	1163.625281	-273.725102	153.580338	980.089596	-54.028605	103.448655	994.171506	-425.068056	264.547904	900.716866	-79.197177	342.988085	865.923197	-98.546184	389.397506	791.901060	-111.753040	359.690081	888.355174	-122.705702	430.375221	702.820046	-148.432694	393.561839	688.304169	-240.643080	351.405112	644.758318	-106.139590	300.636759	571.362768	-113.673326	222.238275	533.183676	-102.038254	313.636759	555.458826	-148.045627	144.789706	473.762848	-89.957009	144.300437	477.555024	-165.931897	68.389882	509.131884	-120.817976	213.602972	289.083057	-129.468269	155.272792	346.208538	-62.535644	215.100686	903.380899	-431.487885	292.901939	869.024049	-424.633045	316.600621	895.817400	-412.786862	345.383992	795.747683	-422.127240	406.985442	714.951804	-404.732869	424.568778	703.415938	-309.486424	338.610245	350.374229	-416.400590	351.729759	360.581835	-339.699778	273.021404	301.456853	-378.046583	447.008051	280.699737	-435.798046	384.218213	615.899831	-427.796588	391.422917	529.739708	-420.007905	353.575224	449.351695	-418.810441	417.096000	527.204484	-388.787036	533.167718	313.359650	-364.577754	-65.055188	853.343968	-239.436051	20.696901	84.707021	-442.011592	21.129024	84.022201	-43.867646	
